<svg width="191" height="21" fill="none" xmlns="http://www.w3.org/2000/svg">
    <path fill-rule="evenodd" clip-rule="evenodd" d="M47.16 3.29l-6.983 15.195h1.156l1.889-4.225h8.843l1.904 4.22h1.224L48.209 3.284l-1.049.005zm-3.453 9.945l3.968-8.72 3.938 8.72h-7.906zM75.76 7.671a4.027 4.027 0 00-1.131-2.838c-.899-.902-2.37-1.47-4.21-1.47h-6.275v15.049h1.112v-6.236h4.895l4.764 6.236h1.413l-4.939-6.432c2.52-.343 4.371-1.784 4.371-4.299v-.01zm-10.514 3.486V4.412h5.11c2.714 0 4.297 1.27 4.297 3.289 0 2.216-1.86 3.485-4.37 3.485l-5.037-.03zm32.14-7.8h-1.516l-9.533 9.878V3.358h-1.112v15.054h1.112v-3.829l3.72-3.799 6.153 7.613h1.457L90.867 9.99l6.517-6.632zm28.768 1.055h5.216v14.02h1.112V4.411h5.211V3.358h-11.539v1.054zm20.48 14.02h1.112V3.357h-1.112V18.43zm21.426-1.961L157.734 3.358h-1.049v15.054h1.069V5.034l10.538 13.378h.835V3.358h-1.068V16.47zm17.065-5.883v.98h4.856v4.202a7.411 7.411 0 01-4.613 1.671c-3.885 0-6.207-2.819-6.207-6.603 0-3.573 2.463-6.578 5.979-6.578a6.463 6.463 0 014.652 1.755l.704-.814a7.529 7.529 0 00-5.293-1.927c-4.322 0-7.158 3.618-7.158 7.564 0 4.157 2.709 7.564 7.284 7.564a8.664 8.664 0 005.692-2.196v-5.628l-5.896.01zm-78.556-6.152h10.684V3.353h-10.684v1.083zm7.415 5.946h-7.415v1.074h7.415v-1.074zm-7.415 8.03h10.684v-1.074h-10.684v1.074zM24.767 0l-4.944 8.549L14.904 0H8.94v12.701a39.075 39.075 0 005.964 4.382v-6.299l4.652 7.844h.535l4.676-7.844V21h5.935V0h-5.935zM5.964 9.681V0H0a33.792 33.792 0 005.964 9.681zM0 12.186v8.824h5.964v-4.672A45.676 45.676 0 010 12.186zM8.94 17.931V21h5.964v-.662a45.86 45.86 0 01-5.964-2.407z" fill="#5C5C5C"/>
</svg>
