<svg width="30" height="29" fill="none" xmlns="http://www.w3.org/2000/svg">
    <path d="M16.536.214a.944.944 0 00-.771-.198l-15 2.812a.935.935 0 00-.765.92v20.626c0 .45.32.838.765.92l15 2.813a.937.937 0 001.11-.92V.936a.935.935 0 00-.34-.723zM15 26.056l-13.125-2.46V4.527L15 2.067v23.989z" fill="#000"/>
    <path d="M29.063 3.749H15.938a.938.938 0 000 1.875h12.187v16.875H15.937a.938.938 0 000 1.875h13.126c.517 0 .937-.42.937-.938V4.686a.938.938 0 00-.938-.937z" fill="#000"/>
    <path d="M19.688 7.499h-3.75a.938.938 0 000 1.875h3.75a.938.938 0 000-1.875zM19.688 11.249h-3.75a.938.938 0 000 1.875h3.75a.938.938 0 000-1.875zM19.688 14.999h-3.75a.938.938 0 000 1.875h3.75a.938.938 0 000-1.875zM19.688 18.749h-3.75a.938.938 0 000 1.875h3.75a.938.938 0 000-1.875zM25.313 7.499h-1.875a.938.938 0 000 1.875h1.875a.938.938 0 000-1.875zM25.313 11.249h-1.875a.938.938 0 000 1.875h1.875a.938.938 0 000-1.875zM25.313 14.999h-1.875a.938.938 0 000 1.875h1.875a.938.938 0 000-1.875zM25.313 18.749h-1.875a.938.938 0 000 1.875h1.875a.938.938 0 000-1.875zM12.894 17.195l-6.562-7.5a.937.937 0 10-1.412 1.233l6.562 7.5a.935.935 0 001.324.088.936.936 0 00.088-1.321z" fill="#000"/>
    <path d="M12.763 8.635a.937.937 0 00-1.316.163l-6.563 8.438a.94.94 0 00.741 1.513.936.936 0 00.739-.36l6.562-8.438c.319-.41.246-.999-.163-1.316z" fill="#000"/>
</svg>
