<svg width="40" height="40" fill="none" xmlns="http://www.w3.org/2000/svg">
    <path d="M10.507 21.476h1.585v8.582h1.5v-8.582h1.616V20.07h-4.701v1.406zM23.191 22.525c-.496 0-.958.271-1.393.807V20.07h-1.349v9.988h1.349v-.72c.45.556.913.823 1.393.823.537 0 .898-.282 1.078-.836.09-.316.136-.811.136-1.5V24.86c0-.704-.046-1.196-.136-1.495-.18-.558-.542-.84-1.078-.84zm-.135 5.405c0 .673-.197 1.005-.587 1.005-.22 0-.446-.106-.672-.332v-4.536c.226-.223.451-.329.672-.329.39 0 .587.345.587 1.016v3.176zM17.933 28.304c-.299.422-.582.63-.853.63-.18 0-.282-.105-.315-.315-.012-.043-.012-.208-.012-.524v-5.479h-1.35V28.5c0 .526.046.881.12 1.107.135.377.435.554.869.554.496 0 1.005-.3 1.541-.914v.812h1.35v-7.443h-1.35v5.688zM19.09 15.74c.44 0 .65-.348.65-1.043v-3.164c0-.696-.21-1.043-.65-1.043-.439 0-.65.348-.65 1.043v3.164c0 .696.211 1.044.65 1.044z" fill="#666" fill-opacity=".2"/>
    <path d="M20 0C8.954 0 0 8.954 0 20s8.954 20 20 20 20-8.954 20-20S31.046 0 20 0zm2.224 9.354h1.36v5.538c0 .32 0 .485.016.53.03.21.137.319.32.319.272 0 .558-.211.86-.638V9.354h1.363v7.521H24.78v-.82c-.542.622-1.06.924-1.557.924-.438 0-.741-.178-.878-.559-.075-.228-.12-.587-.12-1.118V9.354zm-5.147 2.453c0-.804.137-1.392.427-1.772.377-.514.907-.771 1.587-.771.682 0 1.213.257 1.59.771.285.38.422.968.422 1.772v2.633c0 .8-.137 1.393-.423 1.77-.376.512-.907.769-1.59.769-.678 0-1.21-.257-1.586-.77-.29-.376-.427-.97-.427-1.768v-2.634zm-3.644-5.024l1.073 3.963 1.03-3.963h1.53l-1.819 6.005v4.088h-1.51v-4.088c-.138-.724-.44-1.785-.925-3.193-.319-.937-.65-1.876-.969-2.812h1.59zm17.334 23.932c-.274 1.187-1.244 2.063-2.412 2.193-2.768.309-5.567.31-8.356.309-2.788.002-5.59 0-8.356-.309-1.168-.13-2.139-1.006-2.411-2.193-.39-1.69-.39-3.534-.39-5.274 0-1.74.005-3.585.394-5.275.273-1.187 1.243-2.062 2.411-2.192 2.767-.31 5.568-.311 8.357-.31 2.788-.001 5.588 0 8.355.31 1.169.13 2.14 1.005 2.413 2.192.388 1.69.385 3.535.385 5.275 0 1.74-.001 3.585-.39 5.274z" fill="#666" fill-opacity=".2"/>
    <path d="M27.486 22.525c-.69 0-1.225.254-1.615.763-.286.377-.416.958-.416 1.753v2.607c0 .791.146 1.378.433 1.75.39.509.926.763 1.632.763.704 0 1.257-.267 1.63-.807.164-.24.27-.51.315-.808.013-.136.029-.435.029-.87v-.196h-1.375c0 .54-.018.84-.03.914-.077.36-.27.54-.603.54-.463 0-.69-.344-.69-1.032v-1.32h2.698v-1.541c0-.796-.135-1.377-.418-1.754-.376-.508-.913-.762-1.59-.762zm.66 2.935h-1.349v-.689c0-.688.226-1.032.677-1.032.446 0 .672.345.672 1.032v.69z" fill="#666" fill-opacity=".2"/>
</svg>
