<svg xmlns="http://www.w3.org/2000/svg" width="46.563" height="18.469" viewBox="0 0 46.563 18.469">
  <metadata><?xpacket begin="﻿" id="W5M0MpCehiHzreSzNTczkc9d"?>
<x:xmpmeta xmlns:x="adobe:ns:meta/" x:xmptk="Adobe XMP Core 5.6-c142 79.160924, 2017/07/13-01:06:39        ">
   <rdf:RDF xmlns:rdf="http://www.w3.org/1999/02/22-rdf-syntax-ns#">
      <rdf:Description rdf:about=""/>
   </rdf:RDF>
</x:xmpmeta>
                                                                                                    
                                                                                                    
                                                                                                    
                                                                                                    
                                                                                                    
                                                                                                    
                                                                                                    
                                                                                                    
                                                                                                    
                                                                                                    
                                                                                                    
                                                                                                    
                                                                                                    
                                                                                                    
                                                                                                    
                                                                                                    
                                                                                                    
                                                                                                    
                                                                                                    
                                                                                                    
                           
<?xpacket end="w"?></metadata>
<defs>
    <style>
      .cls-1 {
        fill: #f02a28;
        fill-rule: evenodd;
      }
    </style>
  </defs>
  <path id="_AVL_копия" data-name="{AVL} копия" class="cls-1" d="M25.045,16.321H24.586a3.374,3.374,0,0,0-2.676.83,4.6,4.6,0,0,0-.605,2.793v2.363a3.133,3.133,0,0,1-.561,2.129,2.5,2.5,0,0,1-1.9.605l-0.215-.02H18.4v1.064h0.225l0.215-.02a2.512,2.512,0,0,1,1.953.684A3.194,3.194,0,0,1,21.3,28.8v2.383a4.572,4.572,0,0,0,.605,2.793,3.406,3.406,0,0,0,2.676.81h0.459V33.743H24.82l-0.215.02a2.193,2.193,0,0,1-1.67-.488,3.2,3.2,0,0,1-.43-1.992V28.928a4.64,4.64,0,0,0-.449-2.358,2.4,2.4,0,0,0-1.475-1,2.568,2.568,0,0,0,1.621-1.25,5.334,5.334,0,0,0,.3-2.109V19.846a3.019,3.019,0,0,1,.464-1.987,2.323,2.323,0,0,1,1.714-.493h0.361V16.321Zm4.636,11.961h6.328l1.7,4.463H39.2L33.7,18.526h-1.68L26.507,32.745h1.475ZM30.169,27l2.656-7.139L35.521,27H30.169Zm11.472,5.742h1.1L48.1,18.526H46.7L42.177,30.65l-4.5-12.124h-1.4Zm14.177-1.377h-5V18.526H49.412V32.745h6.406V31.368Zm5.612-14.207a3.357,3.357,0,0,0-2.656-.84H58.315v1.045H58.54l0.215-.02a2.282,2.282,0,0,1,1.641.5,3.111,3.111,0,0,1,.459,2V22.21a5.377,5.377,0,0,0,.3,2.109,2.342,2.342,0,0,0,1.621,1.25,2.473,2.473,0,0,0-1.514,1.006,4.876,4.876,0,0,0-.41,2.354v2.354a2.98,2.98,0,0,1-.464,1.968,2.29,2.29,0,0,1-1.694.493H58.315v1.045h0.459a3.407,3.407,0,0,0,2.676-.81,4.574,4.574,0,0,0,.605-2.793V28.8a3.132,3.132,0,0,1,.562-2.129,2.5,2.5,0,0,1,1.9-.605l0.215,0.02h0.225V25.022H64.731l-0.215.02a2.59,2.59,0,0,1-1.934-.625,3.218,3.218,0,0,1-.527-2.109V19.944a4.544,4.544,0,0,0-.625-2.783h0Z" transform="translate(-18.406 -16.313)"/>
</svg>
