<svg id="Группа_2" data-name="Группа 2" xmlns="http://www.w3.org/2000/svg" width="107.032" height="18.469" viewBox="0 0 107.032 18.469">
  <metadata><?xpacket begin="﻿" id="W5M0MpCehiHzreSzNTczkc9d"?>
<x:xmpmeta xmlns:x="adobe:ns:meta/" x:xmptk="Adobe XMP Core 5.6-c142 79.160924, 2017/07/13-01:06:39        ">
   <rdf:RDF xmlns:rdf="http://www.w3.org/1999/02/22-rdf-syntax-ns#">
      <rdf:Description rdf:about=""/>
   </rdf:RDF>
</x:xmpmeta>
                                                                                                    
                                                                                                    
                                                                                                    
                                                                                                    
                                                                                                    
                                                                                                    
                                                                                                    
                                                                                                    
                                                                                                    
                                                                                                    
                                                                                                    
                                                                                                    
                                                                                                    
                                                                                                    
                                                                                                    
                                                                                                    
                                                                                                    
                                                                                                    
                                                                                                    
                                                                                                    
                           
<?xpacket end="w"?></metadata>
<defs>
    <style>
      .cls-1 {
        fill: #29363d;
      }

      .cls-1, .cls-2 {
        fill-rule: evenodd;
      }

      .cls-2 {
        fill: #f02a28;
      }
    </style>
  </defs>
  <path id="admin" class="cls-1" d="M75.67,28.44a3.771,3.771,0,0,1-2.861,1.309,3.981,3.981,0,0,1-2.954-1.25,4.165,4.165,0,0,1-1.167-3.018,4.461,4.461,0,0,1,1.221-3.154,3.846,3.846,0,0,1,2.94-1.279,3.769,3.769,0,0,1,2.793,1.279,4.181,4.181,0,0,1,1.24,2.979A4.526,4.526,0,0,1,75.67,28.44h0Zm1.211,2.3h1.348V20H76.881v1.719a4.927,4.927,0,0,0-1.733-1.45,5.006,5.006,0,0,0-2.261-.5,5.419,5.419,0,0,0-4,1.621,5.486,5.486,0,0,0-1.621,4.033,5.544,5.544,0,0,0,1.563,3.994,5.168,5.168,0,0,0,3.945,1.611,5.407,5.407,0,0,0,2.354-.527,4.72,4.72,0,0,0,1.758-1.455v1.7Zm11.726-2.3a3.713,3.713,0,0,1-2.861,1.309,3.931,3.931,0,0,1-2.959-1.279,4.49,4.49,0,0,1-1.2-3.164,4.2,4.2,0,0,1,1.182-2.988,3.926,3.926,0,0,1,5.869.1,4.432,4.432,0,0,1,1.142,3.066,4.308,4.308,0,0,1-1.172,2.959h0Zm-2.94-8.672a5.284,5.284,0,0,0-3.935,1.616,5.435,5.435,0,0,0-1.572,3.98,5.568,5.568,0,0,0,1.6,4,5.167,5.167,0,0,0,3.906,1.66,4.935,4.935,0,0,0,4.072-1.9v1.621h1.387V16.526H89.74V21.7a4.937,4.937,0,0,0-4.072-1.934h0Zm12.615,0.02a4.6,4.6,0,0,0-1.9.361,4.225,4.225,0,0,0-1.436,1.074V20H93.585V30.745h1.357V25.52a13.455,13.455,0,0,1,.1-1.953,2.821,2.821,0,0,1,.361-1.006,2.741,2.741,0,0,1,1.123-1.074,3.46,3.46,0,0,1,1.641-.381,2.854,2.854,0,0,1,2.412,1.006,4.358,4.358,0,0,1,.644,2.617v6.016h1.3V25.52a6.411,6.411,0,0,1,.459-2.959,2.948,2.948,0,0,1,1.1-1.074,3.276,3.276,0,0,1,1.621-.381,2.682,2.682,0,0,1,2.441,1.152,5.454,5.454,0,0,1,.557,2.783v5.7h1.318v-5.42a6.943,6.943,0,0,0-1.02-4.2,3.728,3.728,0,0,0-3.16-1.333,4.4,4.4,0,0,0-3.8,1.894,4.146,4.146,0,0,0-3.76-1.894h0Zm15.642-3.262h-1.377v2.217h1.377V16.526Zm0,14.219V20h-1.377V30.745h1.377Zm2.526,0h1.338V25.52a13.328,13.328,0,0,1,.1-1.953,2.815,2.815,0,0,1,.361-1.006,2.741,2.741,0,0,1,1.123-1.074,3.462,3.462,0,0,1,1.641-.381,2.862,2.862,0,0,1,2.422,1,4.426,4.426,0,0,1,.634,2.627v6.016h1.358V25.129a11.068,11.068,0,0,0-.176-2.285,4.013,4.013,0,0,0-.518-1.358,3.574,3.574,0,0,0-1.455-1.255,5.263,5.263,0,0,0-4.033-.083,4.326,4.326,0,0,0-1.455,1.074V20H116.45V30.745Z" transform="translate(-18.406 -16.313)"/>
  <path id="_AVL_" data-name="{AVL}" class="cls-2" d="M25.045,16.321H24.586a3.374,3.374,0,0,0-2.676.83,4.6,4.6,0,0,0-.605,2.793v2.363a3.133,3.133,0,0,1-.561,2.129,2.5,2.5,0,0,1-1.9.605l-0.215-.02H18.4v1.064h0.225l0.215-.02a2.512,2.512,0,0,1,1.953.684A3.194,3.194,0,0,1,21.3,28.8v2.383a4.572,4.572,0,0,0,.605,2.793,3.406,3.406,0,0,0,2.676.81h0.459V33.743H24.82l-0.215.02a2.193,2.193,0,0,1-1.67-.488,3.2,3.2,0,0,1-.43-1.992V28.928a4.64,4.64,0,0,0-.449-2.358,2.4,2.4,0,0,0-1.475-1,2.568,2.568,0,0,0,1.621-1.25,5.334,5.334,0,0,0,.3-2.109V19.846a3.019,3.019,0,0,1,.464-1.987,2.323,2.323,0,0,1,1.714-.493h0.361V16.321Zm4.636,11.961h6.328l1.7,4.463H39.2L33.7,18.526h-1.68L26.507,32.745h1.475ZM30.169,27l2.656-7.139L35.521,27H30.169Zm11.472,5.742h1.1L48.1,18.526H46.7L42.177,30.65l-4.5-12.124h-1.4Zm14.177-1.377h-5V18.526H49.412V32.745h6.406V31.368Zm5.612-14.207a3.357,3.357,0,0,0-2.656-.84H58.315v1.045H58.54l0.215-.02a2.282,2.282,0,0,1,1.641.5,3.111,3.111,0,0,1,.459,2V22.21a5.377,5.377,0,0,0,.3,2.109,2.342,2.342,0,0,0,1.621,1.25,2.473,2.473,0,0,0-1.514,1.006,4.876,4.876,0,0,0-.41,2.354v2.354a2.98,2.98,0,0,1-.464,1.968,2.29,2.29,0,0,1-1.694.493H58.315v1.045h0.459a3.407,3.407,0,0,0,2.676-.81,4.574,4.574,0,0,0,.605-2.793V28.8a3.132,3.132,0,0,1,.562-2.129,2.5,2.5,0,0,1,1.9-.605l0.215,0.02h0.225V25.022H64.731l-0.215.02a2.59,2.59,0,0,1-1.934-.625,3.218,3.218,0,0,1-.527-2.109V19.944a4.544,4.544,0,0,0-.625-2.783h0Z" transform="translate(-18.406 -16.313)"/>
</svg>
