<?xml version="1.0" encoding="UTF-8"?>
<!DOCTYPE svg PUBLIC "-//W3C//DTD SVG 1.1//EN" "http://www.w3.org/Graphics/SVG/1.1/DTD/svg11.dtd">
<!-- Creator: CorelDRAW 2017 -->
<svg xmlns="http://www.w3.org/2000/svg" xml:space="preserve" width="39.7309mm" height="7.031mm" version="1.1" style="shape-rendering:geometricPrecision; text-rendering:geometricPrecision; image-rendering:optimizeQuality; fill-rule:evenodd; clip-rule:evenodd"
viewBox="0 0 2308.48 408.52"
 xmlns:xlink="http://www.w3.org/1999/xlink">
 <defs>
  <style type="text/css">
   <![CDATA[
    .fil1 {fill:#EA6328;fill-rule:nonzero}
    .fil0 {fill:url(#id0)}
   ]]>
  </style>
  <radialGradient id="id0" gradientUnits="userSpaceOnUse" gradientTransform="matrix(0.999995 -0 -0 1 0 0)" cx="261.17" cy="130.73" r="387.32" fx="261.17" fy="130.73">
   <stop offset="0" style="stop-opacity:1; stop-color:#FECC00"/>
   <stop offset="1" style="stop-opacity:1; stop-color:#EA6328"/>
  </radialGradient>
 </defs>
 <g id="Слой_x0020_1">
  <metadata id="CorelCorpID_0Corel-Layer"/>
  <path class="fil0" d="M445.77 332.78l0 -222.1c0,-13.57 -11.41,-24.68 -25.31,-24.68l-219.16 0c-42.76,0 -35.32,31.69 -20.23,46.39l226.4 220.55c15.31,14.92 38.3,14.15 38.3,-20.17zm-84.54 30.34l-156.55 -152.31c-9.85,-9.59 -25.95,-9.58 -35.8,0l-155.22 150.99c-28.73,27.87 -6.2,46.73 13.19,46.73l314.23 0c29.42,0 43.69,-22.49 20.14,-45.4zm231.3 45.4l224.68 0c13.92,0 25.31,-11.09 25.31,-24.66l0 -230.27c-0.27,-26.94 -25.95,-24.82 -39.52,-10.83l-223 217.26c-23.11,22.74 -29.92,48.5 12.54,48.5zm-61.22 -49.15l157.59 -153.35c9.85,-9.6 9.85,-25.3 0,-34.89l-163.51 -159.27c-25.12,-24.47 -39.63,-6.9 -39.35,15.17l0 317.84c0,20.46 21.62,37.51 45.27,14.5z"/>
  <path class="fil1" d="M1117.6 343.37c-3.77,21.03 -12.45,37.14 -26.04,48.35 -13.58,11.21 -30.1,16.81 -49.53,16.81 -11.71,0 -22.02,-1.84 -30.95,-5.5 -8.92,-3.67 -16.86,-8.98 -23.8,-15.92 -5.16,-5.15 -9.17,-10.51 -12.05,-16.07 -2.88,-5.55 -5.01,-11.65 -6.4,-18.3 -1.39,-6.64 -2.23,-14.18 -2.53,-22.61 -0.3,-8.42 -0.45,-18.2 -0.45,-29.3 0,-11.11 0.15,-20.88 0.45,-29.31 0.3,-8.43 1.14,-15.97 2.53,-22.61 1.39,-6.64 3.52,-12.74 6.4,-18.3 2.88,-5.55 6.89,-10.91 12.05,-16.07 6.94,-6.94 14.87,-12.25 23.8,-15.92 8.92,-3.67 19.24,-5.5 30.95,-5.5 19.63,0 36.2,5.6 49.68,16.81 13.49,11.21 22.11,27.33 25.88,48.35l-32.73 0c-2.38,-10.91 -7.14,-19.73 -14.28,-26.48 -7.14,-6.75 -16.66,-10.12 -28.56,-10.12 -12.7,0 -23.11,4.36 -31.24,13.09 -2.78,2.78 -4.96,5.85 -6.55,9.22 -1.59,3.38 -2.88,7.49 -3.86,12.35 -0.99,4.86 -1.64,10.86 -1.93,18 -0.3,7.14 -0.45,15.97 -0.45,26.48 0,10.51 0.15,19.34 0.45,26.48 0.3,7.14 0.94,13.14 1.93,18 0.99,4.86 2.28,8.98 3.86,12.35 1.59,3.37 3.77,6.44 6.55,9.22 8.13,8.73 18.55,13.09 31.24,13.09 11.9,0 21.47,-3.37 28.71,-10.12 7.24,-6.74 12.15,-15.57 14.73,-26.48l32.13 0z"/>
  <polygon id="1" class="fil1" points="1306.98,406.74 1306.98,265.12 1258.19,368.36 1234.39,368.36 1184.4,265.12 1184.4,406.74 1152.27,406.74 1152.27,194.9 1184.4,194.9 1246.29,326.71 1306.98,194.9 1339.12,194.9 1339.12,406.74 "/>
  <path id="2" class="fil1" d="M1518.39 346.34c0,9.72 -1.88,18.45 -5.65,26.18 -3.77,7.74 -9.02,14.28 -15.77,19.64 -6.75,5.36 -14.78,9.42 -24.1,12.2 -9.32,2.78 -19.53,4.17 -30.64,4.17 -16.07,0 -30,-2.08 -41.8,-6.25 -11.81,-4.17 -22.86,-11.41 -33.18,-21.72l21.13 -21.13c7.73,7.74 16.07,13.09 24.99,16.07 8.92,2.97 18.74,4.46 29.46,4.46 14.08,0 24.89,-2.82 32.43,-8.48 7.54,-5.65 11.31,-13.74 11.31,-24.25 0,-9.92 -2.78,-17.26 -8.33,-22.02 -5.16,-4.57 -12.89,-7.54 -23.21,-8.93l-24.99 -3.57c-17.66,-2.78 -30.95,-8.43 -39.87,-16.96 -10.51,-9.52 -15.77,-23.11 -15.77,-40.76 0,-9.12 1.64,-17.51 4.91,-25.14 3.27,-7.63 7.94,-14.18 13.99,-19.64 6.05,-5.45 13.44,-9.67 22.17,-12.64 8.73,-2.97 18.64,-4.46 29.75,-4.46 14.28,0 26.53,1.88 36.74,5.65 10.21,3.77 19.88,9.92 29.01,18.45l-20.23 20.23c-6.55,-6.35 -13.69,-10.66 -21.42,-12.95 -7.74,-2.28 -16.16,-3.42 -25.29,-3.42 -12.49,0 -22.02,3.08 -28.56,9.23 -6.55,6.15 -9.82,14.08 -9.82,23.8 0,3.97 0.59,7.64 1.78,11.01 1.19,3.37 3.17,6.25 5.95,8.63 2.78,2.38 5.9,4.31 9.37,5.8 3.47,1.49 8.08,2.73 13.83,3.72l25.29 3.86c9.71,1.59 17.55,3.57 23.5,5.95 5.95,2.38 11.21,5.65 15.77,9.82 11.5,10.51 17.26,24.99 17.26,43.44z"/>
  <polygon id="3" class="fil1" points="1630.48,406.74 1630.48,194.9 1662.62,194.9 1662.62,406.74 "/>
  <path id="4" class="fil1" d="M1826.72 406.74l-44.63 -89.26 -40.17 0 0 89.26 -32.13 0 0 -211.84 82.12 0c10.12,0 19.19,1.54 27.22,4.61 8.04,3.07 14.93,7.34 20.68,12.79 5.75,5.46 10.17,12 13.24,19.63 3.07,7.64 4.61,15.92 4.61,24.84 0,15.28 -4.07,27.62 -12.2,37.04 -8.13,9.42 -18.15,15.82 -30.05,19.19l48.79 93.72 -37.49 0zm-1.19 -149.66c0,-10.51 -3.32,-18.69 -9.96,-24.54 -6.65,-5.85 -15.32,-8.78 -26.04,-8.78l-47.6 0 0 66.35 47.6 0c10.71,0 19.39,-2.88 26.04,-8.63 6.64,-5.75 9.96,-13.88 9.96,-24.4z"/>
  <path id="5" class="fil1" d="M1995.59 360.62c0,7.94 -1.59,14.87 -4.76,20.82 -3.18,5.96 -7.54,10.96 -13.09,15.03 -5.55,4.07 -12.2,7.09 -19.94,9.08 -7.74,1.99 -16.07,2.97 -25,2.97 -12.29,0 -23.7,-1.44 -34.21,-4.31 -10.51,-2.88 -20.23,-8.68 -29.16,-17.41l19.93 -19.94c6.15,6.35 13.04,10.56 20.68,12.65 7.63,2.08 15.22,3.12 22.76,3.12 9.52,0 17.41,-1.68 23.65,-5.05 6.25,-3.38 9.37,-8.63 9.37,-15.77 0,-5.16 -1.53,-9.22 -4.61,-12.2 -3.07,-2.97 -8.29,-4.86 -15.62,-5.65l-24.1 -2.09c-14.28,-1.39 -25.29,-5.36 -33.03,-11.9 -7.74,-6.55 -11.6,-16.47 -11.6,-29.75 0,-7.34 1.49,-13.88 4.46,-19.63 2.97,-5.75 7.04,-10.62 12.2,-14.58 5.16,-3.97 11.16,-6.94 18,-8.93 6.84,-1.98 14.24,-2.97 22.17,-2.97 11.5,0 21.97,1.29 31.39,3.87 9.42,2.58 17.61,6.94 24.55,13.09l-19.04 19.34c-4.76,-3.96 -10.37,-6.79 -16.81,-8.48 -6.44,-1.68 -13.24,-2.53 -20.38,-2.53 -9.33,0 -16.22,1.78 -20.68,5.36 -4.46,3.57 -6.69,8.23 -6.69,13.98 0,5.16 1.59,9.13 4.76,11.9 3.17,2.78 8.53,4.57 16.07,5.36l21.13 1.78c15.67,1.39 27.52,5.55 35.55,12.5 8.04,6.94 12.05,17.06 12.05,30.35z"/>
  <path id="6" class="fil1" d="M2024.32 406.74l0 -150.84 30.35 0 0 150.84 -30.35 0zm-0.89 -180.6l0 -32.13 32.13 0 0 32.13 -32.13 0z"/>
  <path id="7" class="fil1" d="M2139.62 406.74c-7.14,0 -13.29,-1.19 -18.45,-3.57 -5.16,-2.38 -9.42,-5.51 -12.79,-9.37 -3.37,-3.87 -5.9,-8.33 -7.59,-13.39 -1.68,-5.05 -2.53,-10.26 -2.53,-15.62l0 -85.68 -17.26 0 0 -23.21 17.26 0 0 -43.14 30.35 0 0 43.14 29.16 0 0 23.21 -29.16 0 0 84.2c0,5.55 1.34,9.87 4.01,12.94 2.68,3.08 6.9,4.61 12.65,4.61l12.49 0 0 25.88 -18.15 0z"/>
  <path id="8" class="fil1" d="M2210.6 340.09c0,13.09 3.27,23.4 9.82,30.94 6.54,7.54 16.07,11.31 28.56,11.31 8.53,0 15.42,-1.24 20.68,-3.72 5.25,-2.48 10.56,-6.4 15.91,-11.75l19.34 18.15c-3.96,3.97 -7.88,7.39 -11.75,10.27 -3.87,2.88 -8.04,5.3 -12.5,7.29 -4.46,1.98 -9.32,3.47 -14.58,4.46 -5.26,0.99 -11.16,1.49 -17.7,1.49 -9.52,0 -18.4,-1.34 -26.63,-4.01 -8.23,-2.68 -15.37,-7.04 -21.42,-13.09 -6.05,-6.05 -10.86,-14.03 -14.43,-23.95 -3.57,-9.92 -5.36,-22.02 -5.36,-36.3 0,-24.79 5.8,-43.84 17.41,-57.13 11.6,-13.29 27.12,-19.94 46.56,-19.94 10.12,0 19.14,1.74 27.07,5.21 7.94,3.47 14.63,8.43 20.09,14.88 5.46,6.44 9.62,14.18 12.49,23.21 2.88,9.02 4.32,18.99 4.32,29.9l0 12.79 -97.89 0zm67.84 -21.13c-0.4,-4.56 -0.79,-8.28 -1.19,-11.16 -0.4,-2.88 -1.39,-6 -2.97,-9.37 -2.58,-5.75 -6.4,-10.37 -11.45,-13.83 -5.06,-3.47 -11.16,-5.21 -18.3,-5.21 -7.34,0 -13.54,1.74 -18.6,5.21 -5.05,3.47 -8.87,8.08 -11.45,13.83 -1.59,3.37 -2.58,6.5 -2.97,9.37 -0.4,2.88 -0.7,6.59 -0.89,11.16l67.84 0z"/>
 </g>
</svg>
