<svg width="64" height="54" fill="none" xmlns="http://www.w3.org/2000/svg">
    <path d="M22.091 0H7.364C5.318 0 3.58.716 2.147 2.148.716 3.579 0 5.318 0 7.364V22.09c0 2.046.716 3.784 2.147 5.215 1.432 1.432 3.171 2.148 5.217 2.148h8.59c1.023 0 1.893.358 2.609 1.074.716.715 1.074 1.585 1.074 2.608v1.227c0 2.71-.96 5.024-2.877 6.942-1.918 1.917-4.231 2.876-6.942 2.876H7.364c-.665 0-1.24.243-1.726.729-.486.485-.73 1.06-.73 1.725v4.91c0 .664.244 1.24.73 1.726.486.485 1.06.729 1.726.729h2.454c2.66 0 5.197-.519 7.614-1.554 2.416-1.035 4.506-2.435 6.27-4.2 1.764-1.764 3.164-3.854 4.2-6.27a19.13 19.13 0 001.553-7.613v-27c0-2.046-.716-3.784-2.148-5.216C25.876.716 24.137 0 22.091 0zM61.67 2.148C60.24.716 58.5 0 56.454 0H41.727c-2.045 0-3.784.716-5.216 2.148-1.431 1.432-2.147 3.17-2.147 5.216V22.09c0 2.046.716 3.784 2.147 5.215 1.432 1.432 3.17 2.148 5.216 2.148h8.591c1.023 0 1.893.358 2.609 1.074.715.716 1.074 1.585 1.074 2.608v1.227c0 2.71-.96 5.024-2.877 6.942-1.918 1.917-4.231 2.876-6.942 2.876h-2.455c-.664 0-1.24.243-1.725.729-.486.485-.73 1.06-.73 1.725v4.91c0 .664.244 1.24.73 1.726.485.485 1.06.729 1.725.729h2.455c2.659 0 5.197-.519 7.613-1.554 2.416-1.035 4.506-2.435 6.27-4.2 1.765-1.764 3.165-3.854 4.2-6.27a19.132 19.132 0 001.553-7.613v-27c0-2.046-.715-3.784-2.148-5.215z" fill="#000" fill-opacity=".05"/>
</svg>
