<svg width="356" height="44" viewBox="0 0 356 44" fill="none" xmlns="http://www.w3.org/2000/svg">
<path d="M91.9184 43.5795C121.47 43.5795 151 36.6343 180.917 22.7513C231.259 -0.617691 294.801 -0.610123 346.732 22.7812C349.297 23.9288 352.734 23.4409 354.411 21.6783C356.09 19.9161 355.372 17.5501 352.81 16.395C297.07 -8.70296 232.938 -3.43819 178.818 21.6783C123.155 47.5139 64.8258 42.2643 8.9618 16.4211C6.41856 15.2436 2.52984 14.332 0.818078 16.0795C-0.890908 17.8266 0.229935 21.5776 2.77039 22.7551C32.7905 36.638 62.3636 43.5795 91.9184 43.5795Z" fill="url(#paint0_linear)"/>
<defs>
<linearGradient id="paint0_linear" x1="355" y1="21.9999" x2="-8.50001" y2="21.9999" gradientUnits="userSpaceOnUse">
<stop stop-color="#E1E1E1"/>
<stop offset="1" stop-color="white" stop-opacity="0.56"/>
</linearGradient>
</defs>
</svg>
