<svg width="356" height="44" viewBox="0 0 356 44" fill="none" xmlns="http://www.w3.org/2000/svg">
<path d="M263.4 43.5795C233.849 43.5795 204.319 36.6343 174.401 22.7513C124.06 -0.617691 60.5176 -0.610123 8.58633 22.7812C6.02148 23.9288 2.58408 23.4409 0.907837 21.6783C-0.77121 19.9161 -0.0540161 17.5501 2.50864 16.395C58.2479 -8.70296 122.38 -3.43819 176.5 21.6783C232.163 47.5139 290.493 42.2643 346.357 16.4211C348.9 15.2436 352.789 14.332 354.5 16.0795C356.209 17.8266 355.088 21.5776 352.548 22.7551C322.528 36.638 292.955 43.5795 263.4 43.5795Z" fill="url(#paint0_linear)"/>
<defs>
<linearGradient id="paint0_linear" x1="0.318381" y1="21.9999" x2="363.818" y2="21.9999" gradientUnits="userSpaceOnUse">
<stop stop-color="#E1E1E1"/>
<stop offset="1" stop-color="white" stop-opacity="0.56"/>
</linearGradient>
</defs>
</svg>
